<?xml version="1.0" encoding="utf-8" ?>
<svg baseProfile="tiny" height="667px" version="1.2" width="701px" xmlns="http://www.w3.org/2000/svg" xmlns:ev="http://www.w3.org/2001/xml-events" xmlns:xlink="http://www.w3.org/1999/xlink"><defs /><polygon fill="black" points="490.0,503.0 490.0,507.0 489.0,508.0 489.0,511.0 488.0,512.0 488.0,515.0 487.0,516.0 487.0,518.0 486.0,519.0 486.0,520.0 484.0,522.0 481.0,522.0 480.0,521.0 477.0,521.0 476.0,520.0 473.0,520.0 472.0,519.0 470.0,519.0 469.0,518.0 466.0,518.0 465.0,517.0 463.0,517.0 462.0,516.0 459.0,516.0 458.0,515.0 455.0,515.0 454.0,514.0 451.0,514.0 450.0,515.0 449.0,515.0 448.0,516.0 448.0,519.0 450.0,521.0 453.0,521.0 454.0,522.0 457.0,522.0 458.0,523.0 461.0,523.0 462.0,524.0 465.0,524.0 466.0,525.0 470.0,525.0 471.0,526.0 474.0,526.0 475.0,527.0 479.0,527.0 480.0,528.0 483.0,528.0 484.0,529.0 485.0,529.0 486.0,530.0 488.0,530.0 489.0,531.0 491.0,531.0 492.0,532.0 493.0,532.0 494.0,533.0 495.0,533.0 496.0,534.0 498.0,534.0 499.0,535.0 500.0,535.0 501.0,536.0 502.0,536.0 503.0,537.0 504.0,537.0 505.0,538.0 506.0,538.0 507.0,539.0 508.0,539.0 509.0,540.0 510.0,540.0 511.0,541.0 512.0,541.0 513.0,542.0 514.0,542.0 515.0,543.0 516.0,543.0 517.0,544.0 518.0,544.0 520.0,546.0 521.0,546.0 522.0,547.0 523.0,547.0 524.0,548.0 525.0,548.0 527.0,550.0 528.0,550.0 529.0,551.0 530.0,551.0 532.0,553.0 533.0,553.0 535.0,555.0 536.0,555.0 539.0,558.0 540.0,558.0 544.0,562.0 545.0,562.0 551.0,568.0 552.0,568.0 560.0,576.0 561.0,576.0 573.0,588.0 573.0,589.0 584.0,600.0 584.0,601.0 590.0,607.0 590.0,608.0 594.0,612.0 594.0,613.0 597.0,616.0 597.0,617.0 601.0,621.0 601.0,622.0 604.0,625.0 604.0,626.0 606.0,628.0 606.0,629.0 609.0,632.0 609.0,633.0 612.0,636.0 612.0,637.0 616.0,641.0 620.0,641.0 623.0,638.0 623.0,637.0 622.0,636.0 622.0,634.0 619.0,631.0 619.0,630.0 616.0,627.0 616.0,626.0 613.0,623.0 613.0,622.0 611.0,620.0 611.0,619.0 607.0,615.0 607.0,614.0 604.0,611.0 604.0,610.0 600.0,606.0 600.0,605.0 595.0,600.0 595.0,599.0 589.0,593.0 589.0,592.0 577.0,580.0 577.0,579.0 576.0,579.0 565.0,568.0 564.0,568.0 559.0,563.0 558.0,563.0 554.0,559.0 553.0,559.0 552.0,558.0 552.0,557.0 554.0,555.0 555.0,555.0 559.0,551.0 560.0,551.0 566.0,545.0 567.0,545.0 583.0,529.0 583.0,528.0 582.0,527.0 581.0,527.0 580.0,526.0 579.0,526.0 578.0,525.0 577.0,525.0 576.0,524.0 575.0,524.0 574.0,523.0 573.0,523.0 572.0,522.0 570.0,522.0 569.0,521.0 568.0,521.0 567.0,520.0 566.0,520.0 565.0,519.0 563.0,519.0 562.0,518.0 560.0,518.0 559.0,517.0 558.0,517.0 557.0,516.0 555.0,516.0 554.0,515.0 552.0,515.0 551.0,514.0 549.0,514.0 548.0,513.0 546.0,513.0 545.0,512.0 542.0,512.0 541.0,511.0 539.0,511.0 538.0,510.0 535.0,510.0 534.0,509.0 531.0,509.0 530.0,508.0 527.0,508.0 526.0,507.0 522.0,507.0 521.0,506.0 517.0,506.0 516.0,505.0 511.0,505.0 510.0,504.0 503.0,504.0 502.0,503.0" /><polygon fill="black" points="199.0,503.0 198.0,504.0 191.0,504.0 190.0,505.0 185.0,505.0 184.0,506.0 180.0,506.0 179.0,507.0 175.0,507.0 174.0,508.0 171.0,508.0 170.0,509.0 167.0,509.0 166.0,510.0 163.0,510.0 162.0,511.0 159.0,511.0 158.0,512.0 156.0,512.0 155.0,513.0 153.0,513.0 152.0,514.0 150.0,514.0 149.0,515.0 147.0,515.0 146.0,516.0 144.0,516.0 143.0,517.0 141.0,517.0 140.0,518.0 139.0,518.0 138.0,519.0 136.0,519.0 135.0,520.0 134.0,520.0 133.0,521.0 132.0,521.0 131.0,522.0 129.0,522.0 128.0,523.0 127.0,523.0 126.0,524.0 125.0,524.0 124.0,525.0 123.0,525.0 122.0,526.0 121.0,526.0 120.0,527.0 119.0,527.0 118.0,528.0 118.0,529.0 122.0,533.0 122.0,534.0 123.0,535.0 124.0,535.0 136.0,547.0 137.0,547.0 141.0,551.0 142.0,551.0 145.0,554.0 146.0,554.0 149.0,557.0 149.0,558.0 148.0,559.0 147.0,559.0 143.0,563.0 142.0,563.0 136.0,569.0 135.0,569.0 114.0,590.0 114.0,591.0 107.0,598.0 107.0,599.0 102.0,604.0 102.0,605.0 98.0,609.0 98.0,610.0 94.0,614.0 94.0,615.0 91.0,618.0 91.0,619.0 88.0,622.0 88.0,623.0 85.0,626.0 85.0,627.0 82.0,630.0 82.0,631.0 79.0,634.0 79.0,635.0 78.0,636.0 78.0,638.0 79.0,639.0 79.0,640.0 80.0,641.0 85.0,641.0 89.0,637.0 89.0,636.0 91.0,634.0 91.0,633.0 94.0,630.0 94.0,629.0 97.0,626.0 97.0,625.0 100.0,622.0 100.0,621.0 103.0,618.0 103.0,617.0 108.0,612.0 108.0,611.0 112.0,607.0 112.0,606.0 119.0,599.0 119.0,598.0 128.0,589.0 128.0,588.0 140.0,576.0 141.0,576.0 149.0,568.0 150.0,568.0 155.0,563.0 156.0,563.0 160.0,559.0 161.0,559.0 164.0,556.0 165.0,556.0 167.0,554.0 168.0,554.0 170.0,552.0 171.0,552.0 172.0,551.0 173.0,551.0 175.0,549.0 176.0,549.0 178.0,547.0 179.0,547.0 180.0,546.0 181.0,546.0 182.0,545.0 183.0,545.0 185.0,543.0 186.0,543.0 187.0,542.0 188.0,542.0 189.0,541.0 190.0,541.0 191.0,540.0 192.0,540.0 193.0,539.0 194.0,539.0 195.0,538.0 196.0,538.0 197.0,537.0 198.0,537.0 199.0,536.0 200.0,536.0 201.0,535.0 202.0,535.0 203.0,534.0 205.0,534.0 206.0,533.0 207.0,533.0 208.0,532.0 210.0,532.0 211.0,531.0 212.0,531.0 213.0,530.0 215.0,530.0 216.0,529.0 218.0,529.0 219.0,528.0 221.0,528.0 222.0,527.0 225.0,527.0 226.0,526.0 230.0,526.0 231.0,525.0 234.0,525.0 235.0,524.0 239.0,524.0 240.0,523.0 243.0,523.0 244.0,522.0 247.0,522.0 248.0,521.0 250.0,521.0 251.0,520.0 252.0,520.0 252.0,519.0 253.0,518.0 253.0,517.0 252.0,516.0 252.0,515.0 251.0,515.0 250.0,514.0 247.0,514.0 246.0,515.0 243.0,515.0 242.0,516.0 239.0,516.0 238.0,517.0 235.0,517.0 234.0,518.0 232.0,518.0 231.0,519.0 228.0,519.0 227.0,520.0 225.0,520.0 224.0,521.0 221.0,521.0 220.0,522.0 216.0,522.0 215.0,521.0 215.0,519.0 214.0,518.0 214.0,516.0 213.0,515.0 213.0,513.0 212.0,512.0 212.0,508.0 211.0,507.0 211.0,503.0" /><polygon fill="black" points="536.0,464.0 535.0,465.0 518.0,465.0 517.0,466.0 509.0,466.0 508.0,467.0 502.0,467.0 501.0,468.0 496.0,468.0 495.0,469.0 493.0,469.0 492.0,470.0 492.0,484.0 491.0,485.0 464.0,485.0 463.0,486.0 457.0,486.0 455.0,488.0 455.0,490.0 458.0,493.0 464.0,493.0 465.0,492.0 483.0,492.0 484.0,491.0 498.0,491.0 499.0,492.0 508.0,492.0 509.0,493.0 515.0,493.0 516.0,494.0 521.0,494.0 522.0,495.0 526.0,495.0 527.0,496.0 531.0,496.0 532.0,497.0 535.0,497.0 536.0,498.0 539.0,498.0 540.0,499.0 542.0,499.0 543.0,500.0 546.0,500.0 547.0,501.0 549.0,501.0 550.0,502.0 553.0,502.0 554.0,503.0 556.0,503.0 557.0,504.0 558.0,504.0 559.0,505.0 561.0,505.0 562.0,506.0 564.0,506.0 565.0,507.0 566.0,507.0 567.0,508.0 569.0,508.0 570.0,509.0 571.0,509.0 572.0,510.0 574.0,510.0 575.0,511.0 576.0,511.0 577.0,512.0 578.0,512.0 579.0,513.0 580.0,513.0 581.0,514.0 583.0,514.0 584.0,515.0 585.0,515.0 586.0,516.0 587.0,516.0 588.0,517.0 589.0,517.0 591.0,519.0 592.0,519.0 593.0,520.0 594.0,520.0 595.0,521.0 596.0,521.0 598.0,523.0 599.0,523.0 600.0,524.0 601.0,524.0 603.0,526.0 604.0,526.0 605.0,527.0 606.0,527.0 608.0,529.0 609.0,529.0 611.0,531.0 612.0,531.0 614.0,533.0 615.0,533.0 617.0,535.0 618.0,535.0 620.0,537.0 621.0,537.0 623.0,539.0 624.0,539.0 626.0,541.0 627.0,541.0 630.0,544.0 631.0,544.0 634.0,547.0 635.0,547.0 638.0,550.0 639.0,550.0 642.0,553.0 643.0,553.0 647.0,557.0 648.0,557.0 652.0,561.0 653.0,561.0 659.0,567.0 660.0,567.0 668.0,575.0 669.0,575.0 671.0,577.0 674.0,577.0 675.0,576.0 676.0,576.0 676.0,575.0 677.0,574.0 677.0,570.0 671.0,564.0 670.0,564.0 665.0,559.0 664.0,559.0 660.0,555.0 659.0,555.0 655.0,551.0 654.0,551.0 651.0,548.0 650.0,548.0 647.0,545.0 646.0,545.0 643.0,542.0 642.0,542.0 640.0,540.0 639.0,540.0 636.0,537.0 635.0,537.0 633.0,535.0 632.0,535.0 630.0,533.0 629.0,533.0 627.0,531.0 626.0,531.0 624.0,529.0 623.0,529.0 621.0,527.0 620.0,527.0 618.0,525.0 617.0,525.0 616.0,524.0 615.0,524.0 613.0,522.0 612.0,522.0 610.0,520.0 609.0,520.0 608.0,519.0 607.0,519.0 606.0,518.0 605.0,518.0 604.0,517.0 603.0,517.0 601.0,515.0 599.0,515.0 598.0,514.0 598.0,513.0 600.0,511.0 600.0,510.0 602.0,508.0 602.0,507.0 605.0,504.0 605.0,503.0 608.0,500.0 608.0,499.0 610.0,497.0 610.0,496.0 613.0,493.0 613.0,492.0 615.0,490.0 615.0,489.0 617.0,487.0 617.0,486.0 619.0,484.0 619.0,483.0 621.0,481.0 621.0,480.0 622.0,479.0 622.0,476.0 620.0,474.0 618.0,474.0 617.0,473.0 613.0,473.0 612.0,472.0 609.0,472.0 608.0,471.0 604.0,471.0 603.0,470.0 599.0,470.0 598.0,469.0 594.0,469.0 593.0,468.0 588.0,468.0 587.0,467.0 582.0,467.0 581.0,466.0 572.0,466.0 571.0,465.0 557.0,465.0 556.0,464.0" /><polygon fill="black" points="143.0,464.0 142.0,465.0 129.0,465.0 128.0,466.0 120.0,466.0 119.0,467.0 114.0,467.0 113.0,468.0 108.0,468.0 107.0,469.0 102.0,469.0 101.0,470.0 98.0,470.0 97.0,471.0 93.0,471.0 92.0,472.0 89.0,472.0 88.0,473.0 85.0,473.0 84.0,474.0 81.0,474.0 78.0,477.0 78.0,478.0 79.0,479.0 79.0,480.0 81.0,482.0 81.0,483.0 83.0,485.0 83.0,486.0 84.0,487.0 84.0,488.0 86.0,490.0 86.0,491.0 88.0,493.0 88.0,494.0 90.0,496.0 90.0,497.0 92.0,499.0 92.0,500.0 95.0,503.0 95.0,504.0 98.0,507.0 98.0,508.0 101.0,511.0 101.0,512.0 102.0,513.0 102.0,514.0 101.0,515.0 100.0,515.0 99.0,516.0 98.0,516.0 97.0,517.0 96.0,517.0 94.0,519.0 93.0,519.0 92.0,520.0 91.0,520.0 90.0,521.0 89.0,521.0 87.0,523.0 86.0,523.0 84.0,525.0 83.0,525.0 81.0,527.0 80.0,527.0 78.0,529.0 77.0,529.0 76.0,530.0 75.0,530.0 72.0,533.0 71.0,533.0 69.0,535.0 68.0,535.0 66.0,537.0 65.0,537.0 62.0,540.0 61.0,540.0 59.0,542.0 58.0,542.0 55.0,545.0 54.0,545.0 51.0,548.0 50.0,548.0 47.0,551.0 46.0,551.0 42.0,555.0 41.0,555.0 37.0,559.0 36.0,559.0 30.0,565.0 29.0,565.0 24.0,570.0 24.0,575.0 25.0,576.0 26.0,576.0 27.0,577.0 29.0,577.0 30.0,576.0 31.0,576.0 35.0,572.0 36.0,572.0 43.0,565.0 44.0,565.0 50.0,559.0 51.0,559.0 55.0,555.0 56.0,555.0 60.0,551.0 61.0,551.0 64.0,548.0 65.0,548.0 68.0,545.0 69.0,545.0 72.0,542.0 73.0,542.0 75.0,540.0 76.0,540.0 78.0,538.0 79.0,538.0 81.0,536.0 82.0,536.0 84.0,534.0 85.0,534.0 87.0,532.0 88.0,532.0 90.0,530.0 91.0,530.0 93.0,528.0 94.0,528.0 96.0,526.0 97.0,526.0 98.0,525.0 99.0,525.0 100.0,524.0 101.0,524.0 103.0,522.0 104.0,522.0 105.0,521.0 106.0,521.0 107.0,520.0 108.0,520.0 110.0,518.0 111.0,518.0 112.0,517.0 113.0,517.0 114.0,516.0 115.0,516.0 116.0,515.0 117.0,515.0 118.0,514.0 120.0,514.0 121.0,513.0 122.0,513.0 123.0,512.0 124.0,512.0 125.0,511.0 126.0,511.0 127.0,510.0 128.0,510.0 129.0,509.0 131.0,509.0 132.0,508.0 133.0,508.0 134.0,507.0 136.0,507.0 137.0,506.0 139.0,506.0 140.0,505.0 141.0,505.0 142.0,504.0 144.0,504.0 145.0,503.0 147.0,503.0 148.0,502.0 151.0,502.0 152.0,501.0 154.0,501.0 155.0,500.0 158.0,500.0 159.0,499.0 161.0,499.0 162.0,498.0 165.0,498.0 166.0,497.0 169.0,497.0 170.0,496.0 173.0,496.0 174.0,495.0 178.0,495.0 179.0,494.0 184.0,494.0 185.0,493.0 191.0,493.0 192.0,492.0 200.0,492.0 201.0,491.0 215.0,491.0 216.0,492.0 235.0,492.0 236.0,493.0 242.0,493.0 243.0,492.0 244.0,492.0 245.0,491.0 245.0,488.0 244.0,487.0 244.0,486.0 240.0,486.0 239.0,485.0 209.0,485.0 208.0,484.0 208.0,473.0 209.0,472.0 209.0,470.0 208.0,469.0 207.0,469.0 206.0,468.0 201.0,468.0 200.0,467.0 195.0,467.0 194.0,466.0 186.0,466.0 185.0,465.0 171.0,465.0 170.0,464.0" /><polygon fill="black" points="321.0,421.0 320.0,422.0 316.0,422.0 315.0,423.0 313.0,423.0 312.0,424.0 311.0,424.0 310.0,425.0 309.0,425.0 308.0,426.0 307.0,426.0 299.0,434.0 299.0,435.0 298.0,436.0 298.0,437.0 297.0,438.0 297.0,440.0 296.0,441.0 296.0,448.0 297.0,449.0 297.0,450.0 298.0,451.0 298.0,452.0 299.0,453.0 299.0,454.0 302.0,457.0 303.0,457.0 304.0,458.0 305.0,458.0 306.0,459.0 317.0,459.0 318.0,458.0 323.0,458.0 324.0,459.0 325.0,459.0 327.0,461.0 327.0,462.0 328.0,463.0 328.0,464.0 329.0,465.0 329.0,469.0 328.0,470.0 328.0,474.0 327.0,475.0 327.0,479.0 328.0,480.0 328.0,481.0 329.0,482.0 329.0,483.0 331.0,485.0 331.0,486.0 333.0,488.0 334.0,488.0 337.0,491.0 338.0,491.0 340.0,493.0 341.0,493.0 344.0,496.0 344.0,500.0 345.0,501.0 345.0,510.0 344.0,511.0 344.0,514.0 343.0,515.0 343.0,517.0 342.0,518.0 342.0,519.0 338.0,523.0 338.0,524.0 334.0,528.0 333.0,528.0 329.0,532.0 328.0,532.0 326.0,534.0 325.0,534.0 323.0,536.0 322.0,536.0 321.0,537.0 320.0,537.0 318.0,539.0 317.0,539.0 316.0,540.0 315.0,540.0 314.0,541.0 313.0,541.0 311.0,543.0 310.0,543.0 309.0,544.0 308.0,544.0 307.0,545.0 306.0,545.0 305.0,546.0 304.0,546.0 303.0,547.0 302.0,547.0 301.0,548.0 300.0,548.0 299.0,549.0 298.0,549.0 297.0,550.0 296.0,550.0 295.0,551.0 294.0,551.0 293.0,552.0 291.0,552.0 290.0,553.0 289.0,553.0 288.0,554.0 287.0,554.0 286.0,555.0 285.0,555.0 284.0,556.0 282.0,556.0 281.0,557.0 279.0,557.0 278.0,558.0 274.0,558.0 273.0,559.0 255.0,559.0 254.0,558.0 251.0,558.0 250.0,557.0 248.0,557.0 247.0,556.0 246.0,556.0 245.0,555.0 244.0,555.0 243.0,554.0 242.0,554.0 240.0,552.0 239.0,552.0 226.0,539.0 223.0,539.0 222.0,540.0 220.0,540.0 219.0,541.0 218.0,541.0 217.0,542.0 215.0,542.0 214.0,543.0 212.0,543.0 211.0,544.0 210.0,544.0 209.0,545.0 207.0,545.0 206.0,546.0 205.0,546.0 204.0,547.0 203.0,547.0 202.0,548.0 201.0,548.0 200.0,549.0 199.0,549.0 198.0,550.0 197.0,550.0 196.0,551.0 195.0,551.0 194.0,552.0 193.0,552.0 192.0,553.0 191.0,553.0 189.0,555.0 188.0,555.0 187.0,556.0 186.0,556.0 185.0,557.0 184.0,557.0 182.0,559.0 181.0,559.0 179.0,561.0 178.0,561.0 177.0,562.0 176.0,562.0 174.0,564.0 173.0,564.0 170.0,567.0 169.0,567.0 168.0,568.0 172.0,572.0 173.0,572.0 175.0,574.0 176.0,574.0 177.0,575.0 178.0,575.0 180.0,577.0 181.0,577.0 182.0,578.0 183.0,578.0 184.0,579.0 185.0,579.0 187.0,581.0 187.0,582.0 186.0,583.0 186.0,584.0 183.0,587.0 183.0,588.0 181.0,590.0 181.0,591.0 179.0,593.0 179.0,594.0 177.0,596.0 177.0,597.0 175.0,599.0 175.0,600.0 173.0,602.0 173.0,603.0 171.0,605.0 171.0,606.0 170.0,607.0 170.0,608.0 168.0,610.0 168.0,611.0 167.0,612.0 167.0,613.0 166.0,614.0 166.0,615.0 164.0,617.0 164.0,618.0 163.0,619.0 163.0,620.0 161.0,622.0 161.0,623.0 160.0,624.0 160.0,625.0 159.0,626.0 159.0,627.0 157.0,629.0 157.0,630.0 156.0,631.0 156.0,632.0 155.0,633.0 155.0,634.0 154.0,635.0 154.0,636.0 153.0,637.0 153.0,638.0 151.0,640.0 151.0,642.0 149.0,644.0 149.0,646.0 148.0,647.0 148.0,648.0 147.0,649.0 147.0,650.0 146.0,651.0 146.0,652.0 145.0,653.0 145.0,654.0 144.0,655.0 144.0,656.0 143.0,657.0 143.0,658.0 142.0,659.0 142.0,660.0 141.0,661.0 141.0,664.0 142.0,665.0 142.0,666.0 143.0,666.0 144.0,667.0 147.0,667.0 148.0,666.0 149.0,666.0 149.0,665.0 150.0,664.0 150.0,663.0 151.0,662.0 151.0,661.0 152.0,660.0 152.0,659.0 153.0,658.0 153.0,657.0 154.0,656.0 154.0,655.0 155.0,654.0 155.0,653.0 156.0,652.0 156.0,650.0 157.0,649.0 157.0,648.0 158.0,647.0 158.0,646.0 159.0,645.0 159.0,644.0 161.0,642.0 161.0,641.0 162.0,640.0 162.0,639.0 163.0,638.0 163.0,637.0 164.0,636.0 164.0,635.0 165.0,634.0 165.0,633.0 166.0,632.0 166.0,631.0 168.0,629.0 168.0,628.0 169.0,627.0 169.0,626.0 170.0,625.0 170.0,624.0 172.0,622.0 172.0,621.0 173.0,620.0 173.0,619.0 175.0,617.0 175.0,616.0 176.0,615.0 176.0,614.0 178.0,612.0 178.0,611.0 180.0,609.0 180.0,608.0 181.0,607.0 181.0,606.0 183.0,604.0 183.0,603.0 185.0,601.0 185.0,600.0 188.0,597.0 188.0,596.0 190.0,594.0 190.0,593.0 192.0,591.0 192.0,590.0 194.0,588.0 194.0,587.0 196.0,585.0 197.0,585.0 198.0,586.0 199.0,586.0 200.0,587.0 202.0,587.0 203.0,588.0 204.0,588.0 205.0,589.0 206.0,589.0 207.0,590.0 209.0,590.0 210.0,591.0 211.0,591.0 212.0,592.0 214.0,592.0 215.0,593.0 216.0,593.0 217.0,594.0 219.0,594.0 220.0,595.0 221.0,595.0 222.0,596.0 224.0,596.0 225.0,597.0 226.0,597.0 227.0,598.0 229.0,598.0 230.0,599.0 232.0,599.0 233.0,600.0 234.0,600.0 235.0,601.0 237.0,601.0 238.0,602.0 240.0,602.0 241.0,603.0 243.0,603.0 244.0,604.0 245.0,604.0 246.0,605.0 248.0,605.0 249.0,606.0 251.0,606.0 252.0,607.0 253.0,607.0 254.0,608.0 256.0,608.0 257.0,609.0 258.0,609.0 272.0,623.0 273.0,623.0 276.0,626.0 277.0,626.0 278.0,627.0 279.0,627.0 281.0,629.0 282.0,629.0 283.0,630.0 284.0,630.0 285.0,631.0 286.0,631.0 287.0,632.0 289.0,632.0 290.0,633.0 291.0,633.0 292.0,634.0 294.0,634.0 295.0,635.0 305.0,635.0 306.0,636.0 307.0,636.0 308.0,637.0 309.0,637.0 310.0,638.0 311.0,638.0 312.0,639.0 313.0,639.0 314.0,640.0 315.0,640.0 316.0,641.0 317.0,641.0 318.0,642.0 319.0,642.0 320.0,643.0 322.0,643.0 323.0,644.0 324.0,644.0 325.0,645.0 327.0,645.0 328.0,646.0 331.0,646.0 332.0,647.0 335.0,647.0 336.0,648.0 341.0,648.0 342.0,649.0 361.0,649.0 362.0,648.0 367.0,648.0 368.0,647.0 371.0,647.0 372.0,646.0 374.0,646.0 375.0,645.0 377.0,645.0 378.0,644.0 380.0,644.0 381.0,643.0 383.0,643.0 384.0,642.0 385.0,642.0 386.0,641.0 387.0,641.0 388.0,640.0 389.0,640.0 390.0,639.0 391.0,639.0 392.0,638.0 393.0,638.0 394.0,637.0 395.0,637.0 397.0,635.0 406.0,635.0 407.0,634.0 409.0,634.0 410.0,633.0 412.0,633.0 413.0,632.0 414.0,632.0 415.0,631.0 417.0,631.0 418.0,630.0 419.0,630.0 420.0,629.0 421.0,629.0 423.0,627.0 424.0,627.0 425.0,626.0 426.0,626.0 429.0,623.0 430.0,623.0 444.0,609.0 445.0,609.0 446.0,608.0 447.0,608.0 448.0,607.0 450.0,607.0 451.0,606.0 453.0,606.0 454.0,605.0 456.0,605.0 457.0,604.0 458.0,604.0 459.0,603.0 461.0,603.0 462.0,602.0 464.0,602.0 465.0,601.0 467.0,601.0 468.0,600.0 470.0,600.0 471.0,599.0 472.0,599.0 473.0,598.0 475.0,598.0 476.0,597.0 478.0,597.0 479.0,596.0 480.0,596.0 481.0,595.0 483.0,595.0 484.0,594.0 485.0,594.0 486.0,593.0 488.0,593.0 489.0,592.0 490.0,592.0 491.0,591.0 493.0,591.0 494.0,590.0 495.0,590.0 496.0,589.0 498.0,589.0 499.0,588.0 500.0,588.0 501.0,587.0 503.0,587.0 504.0,586.0 505.0,586.0 506.0,587.0 506.0,588.0 508.0,590.0 508.0,591.0 511.0,594.0 511.0,595.0 513.0,597.0 513.0,598.0 515.0,600.0 515.0,601.0 518.0,604.0 518.0,605.0 520.0,607.0 520.0,608.0 522.0,610.0 522.0,611.0 523.0,612.0 523.0,613.0 525.0,615.0 525.0,616.0 527.0,618.0 527.0,619.0 528.0,620.0 528.0,621.0 530.0,623.0 530.0,624.0 531.0,625.0 531.0,626.0 533.0,628.0 533.0,629.0 534.0,630.0 534.0,631.0 535.0,632.0 535.0,633.0 537.0,635.0 537.0,636.0 538.0,637.0 538.0,638.0 539.0,639.0 539.0,640.0 540.0,641.0 540.0,642.0 541.0,643.0 541.0,644.0 542.0,645.0 542.0,646.0 543.0,647.0 543.0,648.0 544.0,649.0 544.0,650.0 545.0,651.0 545.0,652.0 546.0,653.0 546.0,654.0 547.0,655.0 547.0,656.0 548.0,657.0 548.0,658.0 549.0,659.0 549.0,660.0 550.0,661.0 550.0,662.0 551.0,663.0 551.0,664.0 552.0,665.0 552.0,666.0 553.0,666.0 554.0,667.0 557.0,667.0 558.0,666.0 559.0,666.0 560.0,665.0 560.0,661.0 559.0,660.0 559.0,659.0 558.0,658.0 558.0,657.0 557.0,656.0 557.0,655.0 556.0,654.0 556.0,653.0 555.0,652.0 555.0,651.0 554.0,650.0 554.0,649.0 553.0,648.0 553.0,647.0 552.0,646.0 552.0,645.0 551.0,644.0 551.0,642.0 549.0,640.0 549.0,639.0 548.0,638.0 548.0,637.0 547.0,636.0 547.0,635.0 546.0,634.0 546.0,633.0 545.0,632.0 545.0,631.0 544.0,630.0 544.0,629.0 542.0,627.0 542.0,626.0 541.0,625.0 541.0,624.0 540.0,623.0 540.0,622.0 538.0,620.0 538.0,619.0 537.0,618.0 537.0,617.0 535.0,615.0 535.0,614.0 534.0,613.0 534.0,612.0 532.0,610.0 532.0,609.0 531.0,608.0 531.0,607.0 529.0,605.0 529.0,604.0 527.0,602.0 527.0,601.0 525.0,599.0 525.0,598.0 523.0,596.0 523.0,595.0 521.0,593.0 521.0,592.0 518.0,589.0 518.0,588.0 516.0,586.0 516.0,585.0 513.0,582.0 513.0,581.0 514.0,580.0 516.0,580.0 517.0,579.0 518.0,579.0 520.0,577.0 521.0,577.0 522.0,576.0 523.0,576.0 525.0,574.0 526.0,574.0 528.0,572.0 529.0,572.0 531.0,570.0 532.0,570.0 533.0,569.0 533.0,568.0 531.0,566.0 530.0,566.0 527.0,563.0 526.0,563.0 525.0,562.0 524.0,562.0 522.0,560.0 521.0,560.0 519.0,558.0 518.0,558.0 517.0,557.0 516.0,557.0 515.0,556.0 514.0,556.0 512.0,554.0 511.0,554.0 510.0,553.0 509.0,553.0 508.0,552.0 507.0,552.0 506.0,551.0 505.0,551.0 504.0,550.0 503.0,550.0 502.0,549.0 501.0,549.0 500.0,548.0 499.0,548.0 498.0,547.0 497.0,547.0 496.0,546.0 494.0,546.0 493.0,545.0 492.0,545.0 491.0,544.0 490.0,544.0 489.0,543.0 487.0,543.0 486.0,542.0 485.0,542.0 484.0,541.0 482.0,541.0 481.0,540.0 479.0,540.0 478.0,539.0 474.0,539.0 472.0,541.0 472.0,542.0 465.0,549.0 464.0,549.0 461.0,552.0 460.0,552.0 459.0,553.0 458.0,553.0 456.0,555.0 455.0,555.0 454.0,556.0 453.0,556.0 452.0,557.0 450.0,557.0 449.0,558.0 446.0,558.0 445.0,559.0 427.0,559.0 426.0,558.0 422.0,558.0 421.0,557.0 419.0,557.0 418.0,556.0 417.0,556.0 416.0,555.0 414.0,555.0 413.0,554.0 412.0,554.0 411.0,553.0 410.0,553.0 409.0,552.0 407.0,552.0 406.0,551.0 405.0,551.0 404.0,550.0 403.0,550.0 402.0,549.0 401.0,549.0 400.0,548.0 399.0,548.0 398.0,547.0 397.0,547.0 396.0,546.0 395.0,546.0 394.0,545.0 393.0,545.0 391.0,543.0 390.0,543.0 389.0,542.0 388.0,542.0 387.0,541.0 386.0,541.0 385.0,540.0 384.0,540.0 382.0,538.0 381.0,538.0 380.0,537.0 379.0,537.0 376.0,534.0 375.0,534.0 373.0,532.0 372.0,532.0 369.0,529.0 368.0,529.0 362.0,523.0 362.0,522.0 360.0,520.0 360.0,519.0 358.0,517.0 358.0,515.0 357.0,514.0 357.0,510.0 356.0,509.0 356.0,502.0 357.0,501.0 357.0,497.0 358.0,496.0 358.0,495.0 360.0,493.0 361.0,493.0 363.0,491.0 364.0,491.0 367.0,488.0 368.0,488.0 371.0,485.0 371.0,484.0 373.0,482.0 373.0,480.0 374.0,479.0 374.0,474.0 373.0,473.0 373.0,469.0 372.0,468.0 372.0,467.0 373.0,466.0 373.0,463.0 378.0,458.0 384.0,458.0 385.0,459.0 396.0,459.0 397.0,458.0 398.0,458.0 403.0,453.0 403.0,452.0 404.0,451.0 404.0,449.0 405.0,448.0 405.0,441.0 404.0,440.0 404.0,438.0 403.0,437.0 403.0,436.0 402.0,435.0 402.0,434.0 394.0,426.0 393.0,426.0 392.0,425.0 391.0,425.0 390.0,424.0 389.0,424.0 388.0,423.0 386.0,423.0 385.0,422.0 381.0,422.0 380.0,421.0 371.0,421.0 370.0,422.0 363.0,422.0 362.0,423.0 352.0,423.0 351.0,424.0 349.0,424.0 348.0,423.0 338.0,423.0 337.0,422.0 330.0,422.0 329.0,421.0" /><polygon fill="black" points="84.0,0.0 83.0,1.0 80.0,1.0 79.0,2.0 78.0,2.0 77.0,3.0 76.0,3.0 73.0,6.0 72.0,6.0 71.0,7.0 71.0,8.0 68.0,11.0 68.0,12.0 66.0,14.0 66.0,15.0 65.0,16.0 65.0,17.0 64.0,18.0 64.0,20.0 63.0,21.0 63.0,22.0 62.0,23.0 62.0,26.0 61.0,27.0 61.0,29.0 60.0,30.0 60.0,33.0 59.0,34.0 59.0,39.0 58.0,40.0 58.0,46.0 57.0,47.0 57.0,63.0 56.0,64.0 57.0,65.0 56.0,66.0 56.0,76.0 57.0,77.0 57.0,103.0 58.0,104.0 58.0,116.0 59.0,117.0 59.0,127.0 60.0,128.0 60.0,135.0 61.0,136.0 61.0,143.0 62.0,144.0 62.0,151.0 63.0,152.0 63.0,157.0 64.0,158.0 64.0,163.0 65.0,164.0 65.0,169.0 66.0,170.0 66.0,174.0 67.0,175.0 67.0,180.0 68.0,181.0 68.0,186.0 69.0,187.0 69.0,194.0 70.0,195.0 70.0,201.0 69.0,202.0 69.0,225.0 70.0,226.0 70.0,230.0 71.0,231.0 71.0,235.0 72.0,236.0 72.0,239.0 73.0,240.0 73.0,242.0 74.0,243.0 74.0,245.0 75.0,246.0 75.0,248.0 76.0,249.0 76.0,251.0 77.0,252.0 77.0,255.0 78.0,256.0 78.0,257.0 77.0,258.0 77.0,261.0 76.0,262.0 76.0,264.0 75.0,265.0 75.0,266.0 74.0,267.0 74.0,268.0 73.0,269.0 73.0,271.0 72.0,272.0 72.0,273.0 71.0,274.0 71.0,275.0 70.0,276.0 70.0,277.0 69.0,278.0 69.0,280.0 68.0,281.0 68.0,282.0 67.0,283.0 67.0,284.0 66.0,285.0 66.0,287.0 65.0,288.0 65.0,289.0 64.0,290.0 64.0,292.0 63.0,293.0 63.0,294.0 62.0,295.0 62.0,297.0 61.0,298.0 61.0,300.0 60.0,301.0 60.0,302.0 59.0,303.0 59.0,305.0 58.0,306.0 58.0,308.0 57.0,309.0 57.0,312.0 56.0,313.0 56.0,315.0 55.0,316.0 55.0,319.0 54.0,320.0 54.0,322.0 53.0,323.0 53.0,326.0 52.0,327.0 52.0,331.0 51.0,332.0 51.0,336.0 50.0,337.0 50.0,341.0 49.0,342.0 49.0,348.0 48.0,349.0 48.0,356.0 47.0,357.0 47.0,394.0 48.0,395.0 48.0,402.0 49.0,403.0 49.0,409.0 50.0,410.0 50.0,414.0 51.0,415.0 51.0,419.0 52.0,420.0 52.0,423.0 53.0,424.0 53.0,427.0 54.0,428.0 54.0,430.0 55.0,431.0 55.0,433.0 56.0,434.0 56.0,436.0 57.0,437.0 57.0,439.0 58.0,440.0 58.0,442.0 59.0,443.0 59.0,444.0 60.0,445.0 60.0,447.0 61.0,448.0 61.0,449.0 62.0,450.0 62.0,451.0 63.0,452.0 63.0,453.0 64.0,454.0 64.0,455.0 65.0,456.0 65.0,457.0 63.0,459.0 61.0,459.0 60.0,460.0 58.0,460.0 57.0,461.0 55.0,461.0 54.0,462.0 52.0,462.0 51.0,463.0 49.0,463.0 48.0,464.0 46.0,464.0 45.0,465.0 43.0,465.0 42.0,466.0 40.0,466.0 39.0,467.0 37.0,467.0 36.0,468.0 34.0,468.0 33.0,469.0 31.0,469.0 30.0,470.0 29.0,470.0 28.0,471.0 26.0,471.0 25.0,472.0 23.0,472.0 22.0,473.0 21.0,473.0 20.0,474.0 18.0,474.0 17.0,475.0 15.0,475.0 14.0,476.0 13.0,476.0 12.0,477.0 10.0,477.0 9.0,478.0 8.0,478.0 7.0,479.0 5.0,479.0 4.0,480.0 3.0,480.0 0.0,483.0 0.0,486.0 1.0,487.0 1.0,488.0 2.0,489.0 7.0,489.0 8.0,488.0 10.0,488.0 11.0,487.0 12.0,487.0 13.0,486.0 14.0,486.0 15.0,485.0 17.0,485.0 18.0,484.0 19.0,484.0 20.0,483.0 22.0,483.0 23.0,482.0 24.0,482.0 25.0,481.0 27.0,481.0 28.0,480.0 29.0,480.0 30.0,479.0 32.0,479.0 33.0,478.0 34.0,478.0 35.0,477.0 37.0,477.0 38.0,476.0 40.0,476.0 41.0,475.0 43.0,475.0 44.0,474.0 45.0,474.0 46.0,473.0 48.0,473.0 49.0,472.0 51.0,472.0 52.0,471.0 54.0,471.0 55.0,470.0 57.0,470.0 58.0,469.0 60.0,469.0 61.0,468.0 63.0,468.0 64.0,467.0 67.0,467.0 68.0,466.0 70.0,466.0 71.0,465.0 72.0,465.0 73.0,464.0 75.0,464.0 76.0,463.0 79.0,463.0 80.0,462.0 82.0,462.0 83.0,461.0 86.0,461.0 87.0,460.0 91.0,460.0 92.0,459.0 95.0,459.0 96.0,458.0 100.0,458.0 101.0,457.0 105.0,457.0 106.0,456.0 111.0,456.0 112.0,455.0 119.0,455.0 120.0,454.0 129.0,454.0 130.0,453.0 145.0,453.0 146.0,452.0 166.0,452.0 167.0,453.0 183.0,453.0 184.0,454.0 193.0,454.0 194.0,455.0 200.0,455.0 201.0,456.0 206.0,456.0 207.0,457.0 211.0,457.0 212.0,458.0 215.0,458.0 216.0,459.0 218.0,459.0 219.0,460.0 222.0,460.0 223.0,461.0 225.0,461.0 226.0,462.0 229.0,462.0 230.0,463.0 232.0,463.0 233.0,464.0 237.0,464.0 238.0,465.0 239.0,465.0 240.0,464.0 241.0,464.0 241.0,462.0 242.0,461.0 241.0,460.0 241.0,459.0 240.0,458.0 239.0,458.0 238.0,457.0 235.0,457.0 234.0,456.0 231.0,456.0 230.0,455.0 227.0,455.0 226.0,454.0 223.0,454.0 222.0,453.0 219.0,453.0 218.0,452.0 216.0,452.0 215.0,451.0 216.0,450.0 216.0,449.0 217.0,448.0 217.0,446.0 218.0,445.0 218.0,444.0 220.0,442.0 220.0,441.0 221.0,440.0 221.0,439.0 224.0,436.0 224.0,435.0 228.0,431.0 228.0,430.0 238.0,420.0 239.0,420.0 247.0,412.0 248.0,412.0 254.0,406.0 255.0,406.0 261.0,400.0 262.0,400.0 267.0,395.0 268.0,395.0 272.0,391.0 273.0,391.0 274.0,390.0 275.0,390.0 276.0,389.0 277.0,389.0 279.0,387.0 280.0,387.0 289.0,378.0 289.0,377.0 291.0,375.0 291.0,374.0 292.0,373.0 292.0,372.0 294.0,370.0 294.0,369.0 295.0,368.0 295.0,367.0 296.0,366.0 296.0,364.0 297.0,363.0 297.0,362.0 298.0,361.0 298.0,359.0 299.0,358.0 299.0,356.0 300.0,355.0 300.0,353.0 301.0,352.0 301.0,349.0 302.0,348.0 302.0,344.0 303.0,343.0 303.0,339.0 304.0,338.0 304.0,331.0 305.0,330.0 305.0,315.0 306.0,314.0 306.0,298.0 305.0,297.0 305.0,272.0 304.0,271.0 304.0,236.0 305.0,235.0 305.0,225.0 306.0,224.0 306.0,217.0 307.0,216.0 307.0,211.0 308.0,210.0 308.0,206.0 309.0,205.0 309.0,202.0 310.0,201.0 310.0,198.0 311.0,197.0 311.0,195.0 312.0,194.0 312.0,192.0 313.0,191.0 313.0,190.0 314.0,189.0 314.0,188.0 315.0,187.0 315.0,186.0 318.0,183.0 322.0,183.0 324.0,185.0 325.0,185.0 326.0,186.0 326.0,187.0 328.0,189.0 328.0,190.0 329.0,191.0 329.0,193.0 330.0,194.0 330.0,195.0 331.0,196.0 331.0,197.0 332.0,198.0 332.0,199.0 333.0,198.0 333.0,196.0 334.0,195.0 334.0,192.0 335.0,191.0 335.0,188.0 336.0,187.0 336.0,184.0 337.0,183.0 337.0,180.0 338.0,179.0 338.0,176.0 339.0,175.0 339.0,172.0 340.0,171.0 340.0,169.0 341.0,168.0 341.0,166.0 342.0,165.0 342.0,164.0 343.0,163.0 343.0,161.0 344.0,160.0 344.0,159.0 347.0,156.0 347.0,155.0 348.0,154.0 352.0,154.0 354.0,156.0 354.0,157.0 356.0,159.0 356.0,160.0 357.0,161.0 357.0,162.0 358.0,163.0 358.0,164.0 359.0,165.0 359.0,167.0 360.0,168.0 360.0,169.0 361.0,170.0 361.0,172.0 362.0,173.0 362.0,176.0 363.0,177.0 363.0,179.0 364.0,180.0 364.0,183.0 365.0,184.0 365.0,188.0 366.0,189.0 366.0,192.0 367.0,193.0 367.0,197.0 368.0,198.0 368.0,203.0 369.0,204.0 369.0,207.0 370.0,208.0 370.0,211.0 371.0,211.0 371.0,209.0 372.0,208.0 372.0,207.0 373.0,206.0 373.0,204.0 374.0,203.0 374.0,201.0 375.0,200.0 375.0,199.0 376.0,198.0 376.0,197.0 380.0,193.0 384.0,193.0 387.0,196.0 387.0,197.0 388.0,198.0 388.0,200.0 389.0,201.0 389.0,204.0 390.0,205.0 390.0,208.0 391.0,209.0 391.0,216.0 392.0,217.0 392.0,230.0 393.0,231.0 393.0,265.0 392.0,266.0 393.0,267.0 392.0,268.0 392.0,311.0 393.0,312.0 393.0,326.0 394.0,327.0 394.0,334.0 395.0,335.0 395.0,340.0 396.0,341.0 396.0,344.0 397.0,345.0 397.0,348.0 398.0,349.0 398.0,352.0 399.0,353.0 399.0,355.0 400.0,356.0 400.0,358.0 401.0,359.0 401.0,360.0 402.0,361.0 402.0,363.0 403.0,364.0 403.0,365.0 404.0,366.0 404.0,367.0 405.0,368.0 405.0,369.0 406.0,370.0 406.0,371.0 407.0,372.0 407.0,373.0 409.0,375.0 409.0,376.0 414.0,381.0 414.0,382.0 415.0,382.0 420.0,387.0 421.0,387.0 423.0,389.0 424.0,389.0 425.0,390.0 426.0,390.0 427.0,391.0 428.0,391.0 429.0,392.0 430.0,392.0 435.0,397.0 436.0,397.0 441.0,402.0 442.0,402.0 447.0,407.0 448.0,407.0 454.0,413.0 455.0,413.0 461.0,419.0 462.0,419.0 473.0,430.0 473.0,431.0 477.0,435.0 477.0,436.0 480.0,439.0 480.0,440.0 481.0,441.0 481.0,442.0 483.0,444.0 483.0,445.0 484.0,446.0 484.0,448.0 485.0,449.0 485.0,450.0 486.0,451.0 485.0,452.0 483.0,452.0 482.0,453.0 479.0,453.0 478.0,454.0 475.0,454.0 474.0,455.0 470.0,455.0 469.0,456.0 467.0,456.0 466.0,457.0 463.0,457.0 462.0,458.0 461.0,458.0 460.0,459.0 460.0,460.0 459.0,461.0 460.0,462.0 460.0,463.0 462.0,465.0 463.0,465.0 464.0,464.0 467.0,464.0 468.0,463.0 471.0,463.0 472.0,462.0 474.0,462.0 475.0,461.0 478.0,461.0 479.0,460.0 482.0,460.0 483.0,459.0 485.0,459.0 486.0,458.0 489.0,458.0 490.0,457.0 494.0,457.0 495.0,456.0 500.0,456.0 501.0,455.0 507.0,455.0 508.0,454.0 517.0,454.0 518.0,453.0 534.0,453.0 535.0,452.0 554.0,452.0 555.0,453.0 571.0,453.0 572.0,454.0 580.0,454.0 581.0,455.0 588.0,455.0 589.0,456.0 594.0,456.0 595.0,457.0 600.0,457.0 601.0,458.0 604.0,458.0 605.0,459.0 609.0,459.0 610.0,460.0 614.0,460.0 615.0,461.0 618.0,461.0 619.0,462.0 621.0,462.0 622.0,463.0 625.0,463.0 626.0,464.0 628.0,464.0 629.0,465.0 631.0,465.0 632.0,466.0 633.0,466.0 634.0,467.0 637.0,467.0 638.0,468.0 639.0,468.0 640.0,469.0 643.0,469.0 644.0,470.0 646.0,470.0 647.0,471.0 649.0,471.0 650.0,472.0 652.0,472.0 653.0,473.0 654.0,473.0 655.0,474.0 657.0,474.0 658.0,475.0 660.0,475.0 661.0,476.0 662.0,476.0 663.0,477.0 665.0,477.0 666.0,478.0 668.0,478.0 669.0,479.0 670.0,479.0 671.0,480.0 673.0,480.0 674.0,481.0 675.0,481.0 676.0,482.0 678.0,482.0 679.0,483.0 680.0,483.0 681.0,484.0 682.0,484.0 683.0,485.0 685.0,485.0 686.0,486.0 687.0,486.0 688.0,487.0 690.0,487.0 691.0,488.0 692.0,488.0 693.0,489.0 698.0,489.0 699.0,488.0 700.0,488.0 700.0,487.0 701.0,486.0 701.0,483.0 698.0,480.0 697.0,480.0 696.0,479.0 695.0,479.0 694.0,478.0 692.0,478.0 691.0,477.0 690.0,477.0 689.0,476.0 687.0,476.0 686.0,475.0 685.0,475.0 684.0,474.0 682.0,474.0 681.0,473.0 680.0,473.0 679.0,472.0 677.0,472.0 676.0,471.0 674.0,471.0 673.0,470.0 671.0,470.0 670.0,469.0 669.0,469.0 668.0,468.0 666.0,468.0 665.0,467.0 663.0,467.0 662.0,466.0 660.0,466.0 659.0,465.0 657.0,465.0 656.0,464.0 654.0,464.0 653.0,463.0 651.0,463.0 650.0,462.0 649.0,462.0 648.0,461.0 645.0,461.0 644.0,460.0 643.0,460.0 642.0,459.0 640.0,459.0 639.0,458.0 636.0,458.0 635.0,457.0 636.0,456.0 636.0,455.0 637.0,454.0 637.0,453.0 638.0,452.0 638.0,451.0 639.0,450.0 639.0,449.0 640.0,448.0 640.0,447.0 641.0,446.0 641.0,445.0 642.0,444.0 642.0,442.0 643.0,441.0 643.0,440.0 644.0,439.0 644.0,437.0 645.0,436.0 645.0,434.0 646.0,433.0 646.0,431.0 647.0,430.0 647.0,428.0 648.0,427.0 648.0,424.0 649.0,423.0 649.0,420.0 650.0,419.0 650.0,416.0 651.0,415.0 651.0,411.0 652.0,410.0 652.0,405.0 653.0,404.0 653.0,397.0 654.0,396.0 654.0,384.0 655.0,383.0 655.0,366.0 654.0,365.0 654.0,354.0 653.0,353.0 653.0,346.0 652.0,345.0 652.0,340.0 651.0,339.0 651.0,335.0 650.0,334.0 650.0,330.0 649.0,329.0 649.0,326.0 648.0,325.0 648.0,322.0 647.0,321.0 647.0,318.0 646.0,317.0 646.0,315.0 645.0,314.0 645.0,312.0 644.0,311.0 644.0,308.0 643.0,307.0 643.0,305.0 642.0,304.0 642.0,302.0 641.0,301.0 641.0,300.0 640.0,299.0 640.0,297.0 639.0,296.0 639.0,294.0 638.0,293.0 638.0,292.0 637.0,291.0 637.0,289.0 636.0,288.0 636.0,287.0 635.0,286.0 635.0,285.0 634.0,284.0 634.0,282.0 633.0,281.0 633.0,280.0 632.0,279.0 632.0,278.0 631.0,277.0 631.0,275.0 630.0,274.0 630.0,273.0 629.0,272.0 629.0,271.0 628.0,270.0 628.0,268.0 627.0,267.0 627.0,266.0 626.0,265.0 626.0,263.0 625.0,262.0 625.0,261.0 624.0,260.0 624.0,251.0 625.0,250.0 625.0,248.0 626.0,247.0 626.0,245.0 627.0,244.0 627.0,242.0 628.0,241.0 628.0,239.0 629.0,238.0 629.0,235.0 630.0,234.0 630.0,230.0 631.0,229.0 631.0,224.0 632.0,223.0 632.0,204.0 631.0,203.0 631.0,193.0 632.0,192.0 632.0,186.0 633.0,185.0 633.0,180.0 634.0,179.0 634.0,174.0 635.0,173.0 635.0,169.0 636.0,168.0 636.0,163.0 637.0,162.0 637.0,157.0 638.0,156.0 638.0,151.0 639.0,150.0 639.0,144.0 640.0,143.0 640.0,136.0 641.0,135.0 641.0,127.0 642.0,126.0 642.0,118.0 643.0,117.0 643.0,105.0 644.0,104.0 644.0,80.0 645.0,79.0 645.0,62.0 644.0,61.0 644.0,48.0 643.0,47.0 643.0,40.0 642.0,39.0 642.0,34.0 641.0,33.0 641.0,30.0 640.0,29.0 640.0,26.0 639.0,25.0 639.0,23.0 638.0,22.0 638.0,21.0 637.0,20.0 637.0,18.0 636.0,17.0 636.0,16.0 635.0,15.0 635.0,14.0 634.0,13.0 634.0,12.0 631.0,9.0 631.0,8.0 628.0,5.0 627.0,5.0 625.0,3.0 624.0,3.0 623.0,2.0 622.0,2.0 621.0,1.0 618.0,1.0 617.0,0.0 610.0,0.0 609.0,1.0 605.0,1.0 604.0,2.0 602.0,2.0 601.0,3.0 599.0,3.0 598.0,4.0 597.0,4.0 596.0,5.0 594.0,5.0 593.0,6.0 592.0,6.0 591.0,7.0 590.0,7.0 589.0,8.0 588.0,8.0 586.0,10.0 585.0,10.0 584.0,11.0 583.0,11.0 581.0,13.0 580.0,13.0 578.0,15.0 577.0,15.0 574.0,18.0 573.0,18.0 570.0,21.0 569.0,21.0 566.0,24.0 565.0,24.0 559.0,30.0 558.0,30.0 551.0,37.0 550.0,37.0 500.0,87.0 500.0,88.0 482.0,106.0 482.0,107.0 468.0,121.0 468.0,122.0 465.0,125.0 464.0,125.0 463.0,126.0 462.0,125.0 457.0,125.0 456.0,124.0 452.0,124.0 451.0,123.0 447.0,123.0 446.0,122.0 441.0,122.0 440.0,121.0 434.0,121.0 433.0,120.0 427.0,120.0 426.0,119.0 419.0,119.0 418.0,118.0 409.0,118.0 408.0,117.0 397.0,117.0 396.0,116.0 381.0,116.0 380.0,115.0 322.0,115.0 321.0,116.0 306.0,116.0 305.0,117.0 293.0,117.0 292.0,118.0 284.0,118.0 283.0,119.0 275.0,119.0 274.0,120.0 268.0,120.0 267.0,121.0 261.0,121.0 260.0,122.0 255.0,122.0 254.0,123.0 250.0,123.0 249.0,124.0 244.0,124.0 243.0,125.0 236.0,125.0 229.0,118.0 229.0,117.0 215.0,103.0 215.0,102.0 196.0,83.0 196.0,82.0 151.0,37.0 150.0,37.0 141.0,28.0 140.0,28.0 135.0,23.0 134.0,23.0 130.0,19.0 129.0,19.0 126.0,16.0 125.0,16.0 122.0,13.0 121.0,13.0 119.0,11.0 118.0,11.0 117.0,10.0 116.0,10.0 114.0,8.0 113.0,8.0 112.0,7.0 111.0,7.0 110.0,6.0 108.0,6.0 107.0,5.0 106.0,5.0 105.0,4.0 104.0,4.0 103.0,3.0 101.0,3.0 100.0,2.0 97.0,2.0 96.0,1.0 92.0,1.0 91.0,0.0" /></svg>